<svg xmlns="http://www.w3.org/2000/svg" version="1.1" xmlns:xlink="http://www.w3.org/1999/xlink"
    xmlns:svgjs="http://svgjs.dev/svgjs" viewBox="0 0 800 800">
    <defs>
        <linearGradient x1="50%" y1="0%" x2="50%" y2="100%" id="ffflurry-grad" gradientTransform="rotate(270)">
            <stop stop-color="#191d26" stop-opacity="1" offset="0%"></stop>
            <stop stop-color="#888888" stop-opacity="1" offset="45%"></stop>
            <stop stop-color="#cccccc" stop-opacity="1" offset="100%"></stop>
        </linearGradient>
    </defs>
    <rect width="100%" height="100%" fill="#191d26"></rect>
    <g fill="url(#ffflurry-grad)">
        <rect width="293" height="3" x="122.5" y="719.5" rx="1.5" transform="rotate(45, 269, 721)" opacity="0.78">
        </rect>
        <rect width="191" height="3" x="153.5" y="500.5" rx="1.5" transform="rotate(45, 249, 502)" opacity="0.62">
        </rect>
        <rect width="318" height="3" x="222" y="287.5" rx="1.5" transform="rotate(45, 381, 289)" opacity="0.71"></rect>
        <rect width="499" height="3" x="429.5" y="35.5" rx="1.5" transform="rotate(45, 679, 37)" opacity="0.35"></rect>
        <rect width="45" height="3" x="54.5" y="751.5" rx="1.5" transform="rotate(45, 77, 753)" opacity="0.53"></rect>
        <rect width="218" height="3" x="652" y="469.5" rx="1.5" transform="rotate(45, 761, 471)" opacity="0.88"></rect>
        <rect width="762" height="3" x="13" y="537.5" rx="1.5" transform="rotate(45, 394, 539)" opacity="0.34"></rect>
        <rect width="114" height="3" x="94" y="119.5" rx="1.5" transform="rotate(45, 151, 121)" opacity="0.59"></rect>
        <rect width="588" height="3" x="-84" y="673.5" rx="1.5" transform="rotate(45, 210, 675)" opacity="0.43"></rect>
        <rect width="642" height="3" x="-150" y="281.5" rx="1.5" transform="rotate(45, 171, 283)" opacity="0.54"></rect>
        <rect width="32" height="3" x="311" y="772.5" rx="1.5" transform="rotate(45, 327, 774)" opacity="0.41"></rect>
        <rect width="568" height="3" x="274" y="40.5" rx="1.5" transform="rotate(45, 558, 42)" opacity="0.48"></rect>
        <rect width="574" height="3" x="-108" y="752.5" rx="1.5" transform="rotate(45, 179, 754)" opacity="0.08"></rect>
        <rect width="158" height="3" x="271" y="358.5" rx="1.5" transform="rotate(45, 350, 360)" opacity="0.38"></rect>
        <rect width="167" height="3" x="321.5" y="219.5" rx="1.5" transform="rotate(45, 405, 221)" opacity="0.08">
        </rect>
        <rect width="59" height="3" x="645.5" y="193.5" rx="1.5" transform="rotate(45, 675, 195)" opacity="0.38"></rect>
        <rect width="474" height="3" x="255" y="366.5" rx="1.5" transform="rotate(45, 492, 368)" opacity="0.53"></rect>
        <rect width="287" height="3" x="413.5" y="648.5" rx="1.5" transform="rotate(45, 557, 650)" opacity="0.42">
        </rect>
        <rect width="389" height="3" x="325.5" y="753.5" rx="1.5" transform="rotate(45, 520, 755)" opacity="0.96">
        </rect>
        <rect width="248" height="3" x="541" y="527.5" rx="1.5" transform="rotate(45, 665, 529)" opacity="0.11"></rect>
        <rect width="146" height="3" x="344" y="764.5" rx="1.5" transform="rotate(45, 417, 766)" opacity="0.72"></rect>
        <rect width="360" height="3" x="593" y="131.5" rx="1.5" transform="rotate(45, 773, 133)" opacity="0.90"></rect>
        <rect width="474" height="3" x="438" y="459.5" rx="1.5" transform="rotate(45, 675, 461)" opacity="0.26"></rect>
        <rect width="269" height="3" x="-90.5" y="46.5" rx="1.5" transform="rotate(45, 44, 48)" opacity="0.68"></rect>
        <rect width="584" height="3" x="360" y="266.5" rx="1.5" transform="rotate(45, 652, 268)" opacity="0.31"></rect>
        <rect width="206" height="3" x="382" y="569.5" rx="1.5" transform="rotate(45, 485, 571)" opacity="0.36"></rect>
        <rect width="108" height="3" x="668" y="322.5" rx="1.5" transform="rotate(45, 722, 324)" opacity="0.08"></rect>
        <rect width="186" height="3" x="567" y="693.5" rx="1.5" transform="rotate(45, 660, 695)" opacity="0.54"></rect>
        <rect width="516" height="3" x="318" y="534.5" rx="1.5" transform="rotate(45, 576, 536)" opacity="0.61"></rect>
        <rect width="259" height="3" x="493.5" y="110.5" rx="1.5" transform="rotate(45, 623, 112)" opacity="0.22">
        </rect>
        <rect width="46" height="3" x="731" y="682.5" rx="1.5" transform="rotate(45, 754, 684)" opacity="0.48"></rect>
        <rect width="95" height="3" x="152.5" y="450.5" rx="1.5" transform="rotate(45, 200, 452)" opacity="0.57"></rect>
        <rect width="80" height="3" x="732" y="759.5" rx="1.5" transform="rotate(45, 772, 761)" opacity="0.85"></rect>
        <rect width="174" height="3" x="-48" y="140.5" rx="1.5" transform="rotate(45, 39, 142)" opacity="0.16"></rect>
        <rect width="122" height="3" x="619" y="385.5" rx="1.5" transform="rotate(45, 680, 387)" opacity="0.24"></rect>
        <rect width="74" height="3" x="666" y="759.5" rx="1.5" transform="rotate(45, 703, 761)" opacity="0.78"></rect>
        <rect width="615" height="3" x="350.5" y="615.5" rx="1.5" transform="rotate(45, 658, 617)" opacity="0.82">
        </rect>
        <rect width="79" height="3" x="424.5" y="85.5" rx="1.5" transform="rotate(45, 464, 87)" opacity="0.52"></rect>
        <rect width="438" height="3" x="537" y="192.5" rx="1.5" transform="rotate(45, 756, 194)" opacity="0.22"></rect>
        <rect width="780" height="3" x="-329" y="319.5" rx="1.5" transform="rotate(45, 61, 321)" opacity="0.38"></rect>
        <rect width="338" height="3" x="601" y="376.5" rx="1.5" transform="rotate(45, 770, 378)" opacity="0.30"></rect>
        <rect width="252" height="3" x="40" y="612.5" rx="1.5" transform="rotate(45, 166, 614)" opacity="0.81"></rect>
        <rect width="297" height="3" x="139.5" y="562.5" rx="1.5" transform="rotate(45, 288, 564)" opacity="0.77">
        </rect>
        <rect width="234" height="3" x="353" y="446.5" rx="1.5" transform="rotate(45, 470, 448)" opacity="0.63"></rect>
        <rect width="651" height="3" x="260.5" y="327.5" rx="1.5" transform="rotate(45, 586, 329)" opacity="0.91">
        </rect>
        <rect width="411" height="3" x="144.5" y="719.5" rx="1.5" transform="rotate(45, 350, 721)" opacity="0.12">
        </rect>
        <rect width="582" height="3" x="274" y="172.5" rx="1.5" transform="rotate(45, 565, 174)" opacity="0.88"></rect>
        <rect width="300" height="3" x="594" y="549.5" rx="1.5" transform="rotate(45, 744, 551)" opacity="0.85"></rect>
        <rect width="62" height="3" x="350" y="645.5" rx="1.5" transform="rotate(45, 381, 647)" opacity="0.88"></rect>
        <rect width="144" height="3" x="15" y="563.5" rx="1.5" transform="rotate(45, 87, 565)" opacity="0.97"></rect>
        <rect width="98" height="3" x="714" y="48.5" rx="1.5" transform="rotate(45, 763, 50)" opacity="0.15"></rect>
        <rect width="377" height="3" x="242.5" y="333.5" rx="1.5" transform="rotate(45, 431, 335)" opacity="0.31">
        </rect>
        <rect width="608" height="3" x="28" y="438.5" rx="1.5" transform="rotate(45, 332, 440)" opacity="0.21"></rect>
        <rect width="88" height="3" x="194" y="36.5" rx="1.5" transform="rotate(45, 238, 38)" opacity="0.69"></rect>
        <rect width="349" height="3" x="-123.5" y="663.5" rx="1.5" transform="rotate(45, 51, 665)" opacity="0.07">
        </rect>
        <rect width="361" height="3" x="578.5" y="613.5" rx="1.5" transform="rotate(45, 759, 615)" opacity="0.23">
        </rect>
        <rect width="155" height="3" x="-5.5" y="217.5" rx="1.5" transform="rotate(45, 72, 219)" opacity="0.89"></rect>
        <rect width="542" height="3" x="93" y="39.5" rx="1.5" transform="rotate(45, 364, 41)" opacity="0.60"></rect>
        <rect width="123" height="3" x="448.5" y="288.5" rx="1.5" transform="rotate(45, 510, 290)" opacity="0.82">
        </rect>
        <rect width="107" height="3" x="709.5" y="260.5" rx="1.5" transform="rotate(45, 763, 262)" opacity="0.30">
        </rect>
        <rect width="83" height="3" x="324.5" y="136.5" rx="1.5" transform="rotate(45, 366, 138)" opacity="0.54"></rect>
        <rect width="190" height="3" x="491" y="430.5" rx="1.5" transform="rotate(45, 586, 432)" opacity="0.47"></rect>
        <rect width="352" height="3" x="3" y="379.5" rx="1.5" transform="rotate(45, 179, 381)" opacity="0.48"></rect>
        <rect width="662" height="3" x="-27" y="216.5" rx="1.5" transform="rotate(45, 304, 218)" opacity="0.77"></rect>
        <rect width="171" height="3" x="409.5" y="212.5" rx="1.5" transform="rotate(45, 495, 214)" opacity="0.64">
        </rect>
        <rect width="302" height="3" x="108" y="774.5" rx="1.5" transform="rotate(45, 259, 776)" opacity="0.30"></rect>
        <rect width="313" height="3" x="302.5" y="682.5" rx="1.5" transform="rotate(45, 459, 684)" opacity="0.29">
        </rect>
        <rect width="37" height="3" x="119.5" y="501.5" rx="1.5" transform="rotate(45, 138, 503)" opacity="0.33"></rect>
        <rect width="534" height="3" x="-74" y="195.5" rx="1.5" transform="rotate(45, 193, 197)" opacity="0.13"></rect>
        <rect width="129" height="3" x="543.5" y="751.5" rx="1.5" transform="rotate(45, 608, 753)" opacity="0.69">
        </rect>
        <rect width="380" height="3" x="75" y="118.5" rx="1.5" transform="rotate(45, 265, 120)" opacity="0.97"></rect>
        <rect width="372" height="3" x="109" y="641.5" rx="1.5" transform="rotate(45, 295, 643)" opacity="0.86"></rect>
        <rect width="243" height="3" x="-93.5" y="533.5" rx="1.5" transform="rotate(45, 28, 535)" opacity="0.39"></rect>
        <rect width="577" height="3" x="-234.5" y="423.5" rx="1.5" transform="rotate(45, 54, 425)" opacity="0.40">
        </rect>
        <rect width="354" height="3" x="528" y="119.5" rx="1.5" transform="rotate(45, 705, 121)" opacity="0.60"></rect>
        <rect width="132" height="3" x="65" y="42.5" rx="1.5" transform="rotate(45, 131, 44)" opacity="0.73"></rect>
        <rect width="573" height="3" x="-17.5" y="309.5" rx="1.5" transform="rotate(45, 269, 311)" opacity="0.74">
        </rect>
    </g>
</svg>