<svg width="101" height="18" viewBox="0 0 101 18" fill="none" xmlns="http://www.w3.org/2000/svg">
<path d="M1.884 4.20111L1.884 14.7851C1.884 14.9811 1.982 15.0791 2.178 15.0791L25.152 15.0791C25.348 15.0791 25.446 14.9811 25.446 14.7851V4.20111C25.446 4.00511 25.348 3.90711 25.152 3.90711L2.178 3.90711C1.982 3.90711 1.884 4.00511 1.884 4.20111ZM23.43 17.1371H3.9C2.416 17.1371 1.422 16.8011 0.917998 16.1291C0.385998 15.4571 0.119998 14.3931 0.119998 12.9371L0.119998 6.04911C0.119998 4.56511 0.385998 3.50111 0.917998 2.85711C1.422 2.18511 2.416 1.84911 3.9 1.84911H23.43C24.886 1.84911 25.88 2.18511 26.412 2.85711C26.944 3.50111 27.21 4.56511 27.21 6.04911V12.9371C27.21 14.3931 26.944 15.4571 26.412 16.1291C25.88 16.8011 24.886 17.1371 23.43 17.1371Z" fill="white"/>
<path d="M8.12426 10.6125C8.12426 10.3925 8.15176 10.2225 8.20676 10.1025C8.26176 9.9825 8.34176 9.885 8.44676 9.81C8.55176 9.73 8.67926 9.65 8.82926 9.57L10.0593 8.9025C10.0943 8.8825 10.1193 8.865 10.1343 8.85C10.1543 8.83 10.1643 8.8025 10.1643 8.7675V8.3025C10.1643 8.2325 10.1293 8.1975 10.0593 8.1975H8.23676V7.2375L10.0743 7.2C10.3843 7.19 10.6243 7.235 10.7943 7.335C10.9693 7.43 11.0918 7.565 11.1618 7.74C11.2368 7.915 11.2743 8.1225 11.2743 8.3625V8.805C11.2743 9.05 11.2093 9.2425 11.0793 9.3825C10.9493 9.5225 10.7593 9.6575 10.5093 9.7875L9.36176 10.4025C9.31176 10.4275 9.27676 10.46 9.25676 10.5C9.24176 10.535 9.23426 10.58 9.23426 10.635V11.04H11.2218V12H8.12426V10.6125ZM14.0719 11.85H13.1719V10.8375H14.0719V11.85ZM14.0719 9.9H13.1719V8.8875H14.0719V9.9ZM19.0484 11.1075V12H16.1909V11.1075H19.0484ZM15.8459 8.1375L17.2934 7.2375H18.3284V12H17.2184V8.325L17.2859 8.3475L16.2959 8.9025L15.8459 8.1375Z" fill="white"/>
<path d="M37.839 8.676H39.896C40.8027 8.676 41.494 8.89133 41.97 9.322C42.446 9.74133 42.684 10.3533 42.684 11.158V12.586C42.684 13.402 42.446 14.0253 41.97 14.456C41.5053 14.8867 40.8197 15.0907 39.913 15.068L35.799 15V13.266H40.423C40.5703 13.266 40.644 13.1867 40.644 13.028V10.716C40.644 10.5573 40.5703 10.478 40.423 10.478H38.349C37.4423 10.478 36.751 10.2683 36.275 9.849C35.8103 9.42967 35.578 8.812 35.578 7.996V6.636C35.578 5.83133 35.816 5.208 36.292 4.766C36.768 4.324 37.4593 4.11433 38.366 4.137L42.327 4.205V5.939H37.839C37.6917 5.939 37.618 6.01833 37.618 6.177V8.438C37.618 8.59667 37.6917 8.676 37.839 8.676ZM49.0148 15.153H46.4818C45.5864 15.153 44.9404 14.9773 44.5438 14.626C44.1471 14.2747 43.9488 13.6967 43.9488 12.892V8.778C43.9488 7.962 44.1471 7.384 44.5438 7.044C44.9404 6.69267 45.5864 6.517 46.4818 6.517H49.0148V8.149H46.0908C45.9548 8.149 45.8868 8.217 45.8868 8.353V13.317C45.8868 13.453 45.9548 13.521 46.0908 13.521H49.0148V15.153ZM54.2579 8.149H52.1669C52.0309 8.149 51.9629 8.217 51.9629 8.353V13.317C51.9629 13.453 52.0309 13.521 52.1669 13.521H54.2579C54.3939 13.521 54.4619 13.453 54.4619 13.317V8.353C54.4619 8.217 54.3939 8.149 54.2579 8.149ZM50.0249 12.892V8.778C50.0249 7.962 50.2233 7.384 50.6199 7.044C51.0166 6.69267 51.6626 6.517 52.5579 6.517H53.8669C54.7623 6.517 55.4083 6.69267 55.8049 7.044C56.2016 7.384 56.3999 7.962 56.3999 8.778V12.892C56.3999 13.6967 56.2016 14.2747 55.8049 14.626C55.4083 14.9773 54.7623 15.153 53.8669 15.153H52.5579C51.6626 15.153 51.0166 14.9773 50.6199 14.626C50.2233 14.2747 50.0249 13.6967 50.0249 12.892ZM61.4479 6.517H62.0939V8.2H60.1219C59.9859 8.2 59.9179 8.268 59.9179 8.404L59.9349 15H58.0139L57.9969 6.67H59.7139L59.9179 8.081L59.7989 8.302C59.7989 7.724 59.9292 7.282 60.1899 6.976C60.4505 6.67 60.8699 6.517 61.4479 6.517ZM68.7245 15.102H65.3415C64.4462 15.102 63.8002 14.932 63.4035 14.592C63.0069 14.2407 62.8085 13.6627 62.8085 12.858V8.659C62.8085 7.843 62.9785 7.282 63.3185 6.976C63.6585 6.67 64.2422 6.517 65.0695 6.517H66.6505C67.4892 6.517 68.0785 6.67 68.4185 6.976C68.7699 7.282 68.9455 7.843 68.9455 8.659V11.821H64.5085V10.444H67.0415V8.285C67.0415 8.149 66.9792 8.081 66.8545 8.081H64.9335C64.7975 8.081 64.7295 8.149 64.7295 8.285V13.283C64.7295 13.419 64.7975 13.487 64.9335 13.487H68.7245V15.102ZM77.3157 13.385L77.2987 15.017H71.3997C70.9123 15.017 70.544 14.881 70.2947 14.609C70.0567 14.3257 69.9377 13.9403 69.9377 13.453L75.1227 6.075C75.168 6.007 75.1737 5.94467 75.1397 5.888C75.117 5.83133 75.066 5.803 74.9867 5.803L70.4137 5.82V4.188H75.9557C76.511 4.188 76.9133 4.34667 77.1627 4.664C77.412 4.97 77.5367 5.38367 77.5367 5.905L72.4537 13.096C72.4083 13.1527 72.3913 13.215 72.4027 13.283C72.4253 13.351 72.4763 13.385 72.5557 13.385H77.3157ZM82.4308 8.149H80.3398C80.2038 8.149 80.1358 8.217 80.1358 8.353V13.317C80.1358 13.453 80.2038 13.521 80.3398 13.521H82.4308C82.5668 13.521 82.6348 13.453 82.6348 13.317V8.353C82.6348 8.217 82.5668 8.149 82.4308 8.149ZM78.1978 12.892V8.778C78.1978 7.962 78.3961 7.384 78.7928 7.044C79.1895 6.69267 79.8355 6.517 80.7308 6.517H82.0398C82.9351 6.517 83.5811 6.69267 83.9778 7.044C84.3745 7.384 84.5728 7.962 84.5728 8.778V12.892C84.5728 13.6967 84.3745 14.2747 83.9778 14.626C83.5811 14.9773 82.9351 15.153 82.0398 15.153H80.7308C79.8355 15.153 79.1895 14.9773 78.7928 14.626C78.3961 14.2747 78.1978 13.6967 78.1978 12.892ZM89.6547 6.517H90.4367C91.1507 6.517 91.6721 6.66433 92.0007 6.959C92.3294 7.25367 92.4937 7.758 92.4937 8.472V15H90.5727V8.285C90.5727 8.149 90.5047 8.081 90.3687 8.081H88.3287C88.1927 8.081 88.1247 8.149 88.1247 8.285L88.1417 15H86.2207L86.2037 6.67H87.9207L88.1247 8.081L88.0057 8.302C88.0057 7.724 88.1361 7.282 88.3967 6.976C88.6574 6.67 89.0767 6.517 89.6547 6.517ZM99.8857 15.102H96.5027C95.6073 15.102 94.9613 14.932 94.5647 14.592C94.168 14.2407 93.9697 13.6627 93.9697 12.858V8.659C93.9697 7.843 94.1397 7.282 94.4797 6.976C94.8197 6.67 95.4033 6.517 96.2307 6.517H97.8117C98.6503 6.517 99.2397 6.67 99.5797 6.976C99.931 7.282 100.107 7.843 100.107 8.659V11.821H95.6697V10.444H98.2027V8.285C98.2027 8.149 98.1403 8.081 98.0157 8.081H96.0947C95.9587 8.081 95.8907 8.149 95.8907 8.285V13.283C95.8907 13.419 95.9587 13.487 96.0947 13.487H99.8857V15.102Z" fill="white"/>
</svg>
