<svg width="81" height="13" viewBox="0 0 81 13" fill="none" xmlns="http://www.w3.org/2000/svg">
<path d="M4.352 12.128C3.17867 12.128 2.26133 11.8027 1.6 11.152C0.938667 10.4907 0.608 9.57333 0.608 8.4H2.784C2.784 8.95467 2.92267 9.392 3.2 9.712C3.488 10.0213 3.88267 10.176 4.384 10.176H6.16C6.62933 10.176 7.008 10.08 7.296 9.888C7.59467 9.68533 7.744 9.41867 7.744 9.088V8.544C7.744 8.02133 7.36 7.696 6.592 7.568L3.648 7.072C2.688 6.912 1.95733 6.608 1.456 6.16C0.965333 5.70133 0.72 5.12 0.72 4.416V3.52C0.72 2.95467 0.869333 2.45867 1.168 2.032C1.47733 1.59467 1.90933 1.25867 2.464 1.024C3.02933 0.789333 3.68 0.672 4.416 0.672H6.224C6.91733 0.672 7.53067 0.816 8.064 1.104C8.59733 1.392 9.008 1.79733 9.296 2.32C9.59467 2.832 9.744 3.42933 9.744 4.112H7.568C7.568 3.664 7.44533 3.30667 7.2 3.04C6.95467 2.76267 6.62933 2.624 6.224 2.624H4.416C3.968 2.624 3.60533 2.72 3.328 2.912C3.06133 3.104 2.928 3.36 2.928 3.68V4.112C2.928 4.64533 3.296 4.976 4.032 5.104L6.96 5.616C7.93067 5.78667 8.672 6.09067 9.184 6.528C9.696 6.95467 9.952 7.50933 9.952 8.192V9.248C9.952 9.81333 9.792 10.3147 9.472 10.752C9.16267 11.1893 8.72533 11.5307 8.16 11.776C7.59467 12.0107 6.93867 12.128 6.192 12.128H4.352ZM14.516 12.128C13.844 12.128 13.2467 11.9947 12.724 11.728C12.212 11.4613 11.812 11.088 11.524 10.608C11.2467 10.128 11.108 9.57333 11.108 8.944V7.072C11.108 6.44267 11.2467 5.888 11.524 5.408C11.812 4.928 12.212 4.55467 12.724 4.288C13.236 4.02133 13.828 3.888 14.5 3.888H15.764C16.404 3.888 16.9693 4.016 17.46 4.272C17.9507 4.528 18.3293 4.89067 18.596 5.36C18.8627 5.81867 18.996 6.352 18.996 6.96H16.836C16.836 6.59733 16.7347 6.30933 16.532 6.096C16.34 5.872 16.084 5.76 15.764 5.76H14.532C14.1587 5.76 13.8547 5.89867 13.62 6.176C13.396 6.44267 13.284 6.79467 13.284 7.232V8.784C13.284 9.22133 13.4013 9.57867 13.636 9.856C13.8707 10.1227 14.1747 10.256 14.548 10.256H15.78C16.1213 10.256 16.3933 10.1333 16.596 9.888C16.8093 9.64267 16.916 9.31733 16.916 8.912H19.076C19.076 9.88267 18.772 10.6613 18.164 11.248C17.5667 11.8347 16.772 12.128 15.78 12.128H14.516ZM23.4691 12.128C22.7971 12.128 22.1998 12 21.6771 11.744C21.1651 11.4773 20.7651 11.104 20.4771 10.624C20.1998 10.144 20.0611 9.58933 20.0611 8.96V7.088C20.0611 6.45867 20.2051 5.904 20.4931 5.424C20.7811 4.93333 21.1811 4.55467 21.6931 4.288C22.2158 4.02133 22.8131 3.888 23.4851 3.888H24.9251C25.5971 3.888 26.1891 4.02133 26.7011 4.288C27.2238 4.55467 27.6291 4.93333 27.9171 5.424C28.2051 5.904 28.3491 6.45867 28.3491 7.088V8.96C28.3491 9.58933 28.2051 10.144 27.9171 10.624C27.6291 11.104 27.2238 11.4773 26.7011 11.744C26.1891 12 25.5918 12.128 24.9091 12.128H23.4691ZM24.8771 10.256C25.2718 10.256 25.5865 10.1227 25.8211 9.856C26.0558 9.57867 26.1731 9.22133 26.1731 8.784V7.232C26.1731 6.79467 26.0558 6.44267 25.8211 6.176C25.5865 5.89867 25.2771 5.76 24.8931 5.76H23.5171C23.1331 5.76 22.8238 5.89867 22.5891 6.176C22.3545 6.44267 22.2371 6.79467 22.2371 7.232V8.784C22.2371 9.22133 22.3545 9.57867 22.5891 9.856C22.8238 10.1227 23.1278 10.256 23.5011 10.256H24.8771ZM29.8811 4.016H31.8971V5.04C32.0998 4.73067 32.3878 4.48 32.7611 4.288C33.1451 4.08533 33.5451 3.984 33.9611 3.984H35.0491V5.872H33.9611C33.3958 5.872 32.9371 6.04267 32.5851 6.384C32.2331 6.72533 32.0571 7.16267 32.0571 7.696V12H29.8811V4.016ZM38.8601 12.128C38.1881 12.128 37.5908 12.0053 37.0681 11.76C36.5561 11.504 36.1561 11.152 35.8681 10.704C35.5801 10.2453 35.4361 9.72267 35.4361 9.136V7.072C35.4361 6.44267 35.5801 5.888 35.8681 5.408C36.1561 4.928 36.5561 4.55467 37.0681 4.288C37.5908 4.02133 38.1881 3.888 38.8601 3.888H40.1401C41.1641 3.888 41.9855 4.176 42.6041 4.752C43.2228 5.328 43.5321 6.096 43.5321 7.056V8.752H37.6121V9.136C37.6121 9.488 37.7241 9.77067 37.9481 9.984C38.1721 10.1973 38.4761 10.304 38.8601 10.304H40.1081C40.4815 10.304 40.7801 10.224 41.0041 10.064C41.2388 9.89333 41.3561 9.67467 41.3561 9.408H43.5001C43.5001 9.94133 43.3561 10.416 43.0681 10.832C42.7801 11.248 42.3748 11.568 41.8521 11.792C41.3401 12.016 40.7481 12.128 40.0761 12.128H38.8601ZM41.3881 7.184V7.056C41.3881 6.64 41.2761 6.30933 41.0521 6.064C40.8281 5.808 40.5295 5.68 40.1561 5.68H38.8601C38.4761 5.68 38.1668 5.81333 37.9321 6.08C37.6975 6.34667 37.5801 6.69867 37.5801 7.136V7.184H41.3881Z" fill="white"/>
<path d="M43.852 10.912L49.788 2.688H44.14V0.799999H52.844V1.888L46.876 10.112H52.684V12H43.852V10.912ZM56.5473 12.128C55.8753 12.128 55.2779 12 54.7553 11.744C54.2433 11.4773 53.8433 11.104 53.5553 10.624C53.2779 10.144 53.1393 9.58933 53.1393 8.96V7.088C53.1393 6.45867 53.2833 5.904 53.5713 5.424C53.8593 4.93333 54.2593 4.55467 54.7713 4.288C55.2939 4.02133 55.8913 3.888 56.5633 3.888H58.0033C58.6753 3.888 59.2673 4.02133 59.7793 4.288C60.3019 4.55467 60.7073 4.93333 60.9953 5.424C61.2833 5.904 61.4273 6.45867 61.4273 7.088V8.96C61.4273 9.58933 61.2833 10.144 60.9953 10.624C60.7073 11.104 60.3019 11.4773 59.7793 11.744C59.2673 12 58.6699 12.128 57.9873 12.128H56.5473ZM57.9553 10.256C58.3499 10.256 58.6646 10.1227 58.8993 9.856C59.1339 9.57867 59.2513 9.22133 59.2513 8.784V7.232C59.2513 6.79467 59.1339 6.44267 58.8993 6.176C58.6646 5.89867 58.3553 5.76 57.9713 5.76H56.5953C56.2113 5.76 55.9019 5.89867 55.6673 6.176C55.4326 6.44267 55.3153 6.79467 55.3153 7.232V8.784C55.3153 9.22133 55.4326 9.57867 55.6673 9.856C55.9019 10.1227 56.2059 10.256 56.5793 10.256H57.9553ZM62.9593 4.016H64.9753V4.976C65.2099 4.64533 65.5139 4.384 65.8873 4.192C66.2606 3.98933 66.6339 3.888 67.0073 3.888H67.9673C68.8206 3.888 69.5033 4.15467 70.0153 4.688C70.5379 5.22133 70.7993 5.92533 70.7993 6.8V12H68.6233V6.88C68.6233 6.54933 68.5326 6.28267 68.3513 6.08C68.1806 5.87733 67.9566 5.776 67.6793 5.776H66.7193C66.3459 5.776 66.0099 5.91467 65.7113 6.192C65.4233 6.45867 65.2313 6.81067 65.1353 7.248V12H62.9593V4.016ZM75.657 12.128C74.985 12.128 74.3877 12.0053 73.865 11.76C73.353 11.504 72.953 11.152 72.665 10.704C72.377 10.2453 72.233 9.72267 72.233 9.136V7.072C72.233 6.44267 72.377 5.888 72.665 5.408C72.953 4.928 73.353 4.55467 73.865 4.288C74.3877 4.02133 74.985 3.888 75.657 3.888H76.937C77.961 3.888 78.7823 4.176 79.401 4.752C80.0197 5.328 80.329 6.096 80.329 7.056V8.752H74.409V9.136C74.409 9.488 74.521 9.77067 74.745 9.984C74.969 10.1973 75.273 10.304 75.657 10.304H76.905C77.2783 10.304 77.577 10.224 77.801 10.064C78.0357 9.89333 78.153 9.67467 78.153 9.408H80.297C80.297 9.94133 80.153 10.416 79.865 10.832C79.577 11.248 79.1717 11.568 78.649 11.792C78.137 12.016 77.545 12.128 76.873 12.128H75.657ZM78.185 7.184V7.056C78.185 6.64 78.073 6.30933 77.849 6.064C77.625 5.808 77.3263 5.68 76.953 5.68H75.657C75.273 5.68 74.9637 5.81333 74.729 6.08C74.4943 6.34667 74.377 6.69867 74.377 7.136V7.184H78.185Z" fill="url(#paint0_linear_117_2)"/>
<defs>
<linearGradient id="paint0_linear_117_2" x1="46" y1="6" x2="66" y2="6" gradientUnits="userSpaceOnUse">
<stop stop-color="#821D9B"/>
<stop offset="1" stop-color="#CC54EA"/>
</linearGradient>
</defs>
</svg>
