<svg width="94" height="18" viewBox="0 0 94 18" fill="none" xmlns="http://www.w3.org/2000/svg">
<path d="M2.266 5.33659L2.266 13.6526C2.266 13.8066 2.343 13.8836 2.497 13.8836H20.548C20.702 13.8836 20.779 13.8066 20.779 13.6526V5.33659C20.779 5.18259 20.702 5.10559 20.548 5.10559L2.497 5.10559C2.343 5.10559 2.266 5.18259 2.266 5.33659ZM19.195 15.5006L3.85 15.5006C2.684 15.5006 1.903 15.2366 1.507 14.7086C1.089 14.1806 0.879999 13.3446 0.879999 12.2006L0.879999 6.78859C0.879999 5.62259 1.089 4.78659 1.507 4.28059C1.903 3.75259 2.684 3.48859 3.85 3.48859L19.195 3.48859C20.339 3.48859 21.12 3.75259 21.538 4.28059C21.956 4.78659 22.165 5.62259 22.165 6.78859V12.2006C22.165 13.3446 21.956 14.1806 21.538 14.7086C21.12 15.2366 20.339 15.5006 19.195 15.5006Z" fill="white"/>
<path d="M6.12426 10.6125C6.12426 10.3925 6.15176 10.2225 6.20676 10.1025C6.26176 9.9825 6.34176 9.885 6.44676 9.81C6.55176 9.73 6.67926 9.65 6.82926 9.57L8.05926 8.9025C8.09426 8.8825 8.11926 8.865 8.13426 8.85C8.15426 8.83 8.16426 8.8025 8.16426 8.7675V8.3025C8.16426 8.2325 8.12926 8.1975 8.05926 8.1975H6.23676V7.2375L8.07426 7.2C8.38426 7.19 8.62426 7.235 8.79426 7.335C8.96926 7.43 9.09176 7.565 9.16176 7.74C9.23676 7.915 9.27426 8.1225 9.27426 8.3625V8.805C9.27426 9.05 9.20926 9.2425 9.07926 9.3825C8.94926 9.5225 8.75926 9.6575 8.50926 9.7875L7.36176 10.4025C7.31176 10.4275 7.27676 10.46 7.25676 10.5C7.24176 10.535 7.23426 10.58 7.23426 10.635V11.04H9.22176V12H6.12426V10.6125ZM12.0719 11.85H11.1719V10.8375H12.0719V11.85ZM12.0719 9.9H11.1719V8.8875H12.0719V9.9ZM17.0484 11.1075V12H14.1909V11.1075H17.0484ZM13.8459 8.1375L15.2934 7.2375H16.3284V12H15.2184V8.325L15.2859 8.3475L14.2959 8.9025L13.8459 8.1375Z" fill="white"/>
<path d="M30.839 8.676H32.896C33.8027 8.676 34.494 8.89133 34.97 9.322C35.446 9.74133 35.684 10.3533 35.684 11.158V12.586C35.684 13.402 35.446 14.0253 34.97 14.456C34.5053 14.8867 33.8197 15.0907 32.913 15.068L28.799 15V13.266H33.423C33.5703 13.266 33.644 13.1867 33.644 13.028V10.716C33.644 10.5573 33.5703 10.478 33.423 10.478H31.349C30.4423 10.478 29.751 10.2683 29.275 9.849C28.8103 9.42967 28.578 8.812 28.578 7.996V6.636C28.578 5.83133 28.816 5.208 29.292 4.766C29.768 4.324 30.4593 4.11433 31.366 4.137L35.327 4.205V5.939H30.839C30.6917 5.939 30.618 6.01833 30.618 6.177V8.438C30.618 8.59667 30.6917 8.676 30.839 8.676ZM42.0148 15.153H39.4818C38.5864 15.153 37.9404 14.9773 37.5438 14.626C37.1471 14.2747 36.9488 13.6967 36.9488 12.892V8.778C36.9488 7.962 37.1471 7.384 37.5438 7.044C37.9404 6.69267 38.5864 6.517 39.4818 6.517H42.0148V8.149H39.0908C38.9548 8.149 38.8868 8.217 38.8868 8.353V13.317C38.8868 13.453 38.9548 13.521 39.0908 13.521H42.0148V15.153ZM47.2579 8.149H45.1669C45.0309 8.149 44.9629 8.217 44.9629 8.353V13.317C44.9629 13.453 45.0309 13.521 45.1669 13.521H47.2579C47.3939 13.521 47.4619 13.453 47.4619 13.317V8.353C47.4619 8.217 47.3939 8.149 47.2579 8.149ZM43.0249 12.892V8.778C43.0249 7.962 43.2233 7.384 43.6199 7.044C44.0166 6.69267 44.6626 6.517 45.5579 6.517H46.8669C47.7623 6.517 48.4083 6.69267 48.8049 7.044C49.2016 7.384 49.3999 7.962 49.3999 8.778V12.892C49.3999 13.6967 49.2016 14.2747 48.8049 14.626C48.4083 14.9773 47.7623 15.153 46.8669 15.153H45.5579C44.6626 15.153 44.0166 14.9773 43.6199 14.626C43.2233 14.2747 43.0249 13.6967 43.0249 12.892ZM54.4479 6.517H55.0939V8.2H53.1219C52.9859 8.2 52.9179 8.268 52.9179 8.404L52.9349 15H51.0139L50.9969 6.67H52.7139L52.9179 8.081L52.7989 8.302C52.7989 7.724 52.9292 7.282 53.1899 6.976C53.4505 6.67 53.8699 6.517 54.4479 6.517ZM61.7245 15.102H58.3415C57.4462 15.102 56.8002 14.932 56.4035 14.592C56.0069 14.2407 55.8085 13.6627 55.8085 12.858V8.659C55.8085 7.843 55.9785 7.282 56.3185 6.976C56.6585 6.67 57.2422 6.517 58.0695 6.517H59.6505C60.4892 6.517 61.0785 6.67 61.4185 6.976C61.7699 7.282 61.9455 7.843 61.9455 8.659V11.821H57.5085V10.444H60.0415V8.285C60.0415 8.149 59.9792 8.081 59.8545 8.081H57.9335C57.7975 8.081 57.7295 8.149 57.7295 8.285V13.283C57.7295 13.419 57.7975 13.487 57.9335 13.487H61.7245V15.102ZM70.3157 13.385L70.2987 15.017H64.3997C63.9123 15.017 63.544 14.881 63.2947 14.609C63.0567 14.3257 62.9377 13.9403 62.9377 13.453L68.1227 6.075C68.168 6.007 68.1737 5.94467 68.1397 5.888C68.117 5.83133 68.066 5.803 67.9867 5.803L63.4137 5.82V4.188H68.9557C69.511 4.188 69.9133 4.34667 70.1627 4.664C70.412 4.97 70.5367 5.38367 70.5367 5.905L65.4537 13.096C65.4083 13.1527 65.3913 13.215 65.4027 13.283C65.4253 13.351 65.4763 13.385 65.5557 13.385H70.3157ZM75.4308 8.149H73.3398C73.2038 8.149 73.1358 8.217 73.1358 8.353V13.317C73.1358 13.453 73.2038 13.521 73.3398 13.521H75.4308C75.5668 13.521 75.6348 13.453 75.6348 13.317V8.353C75.6348 8.217 75.5668 8.149 75.4308 8.149ZM71.1978 12.892V8.778C71.1978 7.962 71.3961 7.384 71.7928 7.044C72.1895 6.69267 72.8355 6.517 73.7308 6.517H75.0398C75.9351 6.517 76.5811 6.69267 76.9778 7.044C77.3745 7.384 77.5728 7.962 77.5728 8.778V12.892C77.5728 13.6967 77.3745 14.2747 76.9778 14.626C76.5811 14.9773 75.9351 15.153 75.0398 15.153H73.7308C72.8355 15.153 72.1895 14.9773 71.7928 14.626C71.3961 14.2747 71.1978 13.6967 71.1978 12.892ZM82.6547 6.517H83.4367C84.1507 6.517 84.6721 6.66433 85.0007 6.959C85.3294 7.25367 85.4937 7.758 85.4937 8.472V15H83.5727V8.285C83.5727 8.149 83.5047 8.081 83.3687 8.081H81.3287C81.1927 8.081 81.1247 8.149 81.1247 8.285L81.1417 15H79.2207L79.2037 6.67H80.9207L81.1247 8.081L81.0057 8.302C81.0057 7.724 81.1361 7.282 81.3967 6.976C81.6574 6.67 82.0767 6.517 82.6547 6.517ZM92.8857 15.102H89.5027C88.6073 15.102 87.9613 14.932 87.5647 14.592C87.168 14.2407 86.9697 13.6627 86.9697 12.858V8.659C86.9697 7.843 87.1397 7.282 87.4797 6.976C87.8197 6.67 88.4033 6.517 89.2307 6.517H90.8117C91.6503 6.517 92.2397 6.67 92.5797 6.976C92.931 7.282 93.1067 7.843 93.1067 8.659V11.821H88.6697V10.444H91.2027V8.285C91.2027 8.149 91.1403 8.081 91.0157 8.081H89.0947C88.9587 8.081 88.8907 8.149 88.8907 8.285V13.283C88.8907 13.419 88.9587 13.487 89.0947 13.487H92.8857V15.102Z" fill="white"/>
</svg>
