<?xml version="1.0" standalone="no"?>
<!DOCTYPE svg PUBLIC "-//W3C//DTD SVG 20010904//EN"
 "http://www.w3.org/TR/2001/REC-SVG-20010904/DTD/svg10.dtd">
<svg version="1.0" xmlns="http://www.w3.org/2000/svg"
 width="300.000000pt" height="300.000000pt" viewBox="0 0 300.000000 300.000000"
 preserveAspectRatio="xMidYMid meet">
<metadata>
Created by potrace 1.14, written by Peter Selinger 2001-2017
</metadata>
<g transform="translate(0.000000,300.000000) scale(0.100000,-0.100000)"
fill="#000000" stroke="none">
<path d="M236 2975 c-104 -42 -177 -117 -215 -220 -21 -56 -21 -59 -19 -1268
l3 -1212 27 -57 c37 -79 98 -142 177 -181 l66 -32 1225 0 1225 0 57 27 c74 34
152 112 186 186 l27 57 0 1225 0 1225 -32 66 c-39 79 -102 140 -181 177 l-57
27 -1215 2 -1215 3 -59 -25z m909 -969 c93 -44 122 -100 132 -257 12 -200 -19
-244 -273 -378 -227 -121 -214 -109 -214 -192 l0 -69 235 0 235 0 0 -110 0
-110 -365 0 -365 0 0 203 c1 291 -9 277 296 443 l189 102 0 79 0 78 -227 3
-228 2 0 110 0 109 33 4 c17 2 138 4 267 5 228 2 237 1 285 -22z m1195 -446
l0 -460 85 0 85 0 0 -105 0 -105 -340 0 -341 0 3 103 3 102 123 3 122 3 0 324
c0 179 -3 325 -7 325 -3 0 -51 -25 -105 -55 -54 -30 -102 -55 -106 -55 -8 0
-102 153 -102 167 0 4 73 54 163 110 l162 102 128 0 127 1 0 -460z m-710 -50
l0 -120 -100 0 -100 0 0 120 0 120 100 0 100 0 0 -120z m0 -470 l0 -121 -102
3 -103 3 -3 104 c-1 58 0 111 2 118 4 10 32 13 106 13 l100 0 0 -120z"/>
</g>
</svg>
